{"title":"Mars.Needs.Moms.2011.DVDRIP.XVID.AC3.B-BRG.TheO","uid":6640254,"size":1466268942,"categoryP":"video","categoryS":"movies","magnet":"?xt=urn:btih:82ee27ec055b57ff38ec593e0cfec3a45dee8963&amp;dn=Mars.Needs.Moms.2011.DVDRIP.XVID.AC3.B-BRG.TheO&amp;tr=udp%3A%2F%2Ftracker.openbittorrent.com%3A80&amp;tr=udp%3A%2F%2Fopen.demonii.com%3A1337&amp;tr=udp%3A%2F%2Ftracker.coppersurfer.tk%3A6969&amp;tr=udp%3A%2F%2Fexodus.desync.com%3A6969","seeders":0,"leechers":1,"uploader":"sceneline","files":5,"time":1314717142,"description":"- &lt;a href=&quot;\nhttp://www.Speed.Cd&quot; rel=&quot;nofollow&quot; target=&quot;_NEW&quot;&gt;\nhttp://www.Speed.Cd&lt;/a&gt; \n       &lt;a href=&quot;\nhttp://www.Speed.Cd&quot; rel=&quot;nofollow&quot; target=&quot;_NEW&quot;&gt;\nhttp://www.Speed.Cd&lt;/a&gt;      fast  and The Hottest Private Tracker on the net\n\n(((--Submit for invite!!--)))\n\nPlease Seed back to make the speed Faster!!!\n\n------------------nfo--------------------------\n-     \n  \n   \n   \n                            blues-brothers rg  presents                \n     \n       \n               Mars.Needs.Moms.2011.DVDRIP.XVID.AC3.B-BRG.TheO\n             \n     \n  \n   \n   \n                                encode info                            \n     \n\t    \n\t\tFormat                           : AVI\nFormat/Info                      : Audio Video Interleave\nFile size                        : 1.37 GiB\nDuration                         : 1h 24mn\nOverall bit rate                 : 2 315 Kbps\n\nVideo\nID                               : 0\nFormat                           : MPEG-4 Visual\nFormat profile                   : Advanced Simple@L5\nFormat settings, BVOP            : 2\nFormat settings, QPel            : No\nFormat settings, GMC             : No warppoints\nFormat settings, Matrix          : Default (H.263)\nMuxing mode                      : Packed bitstream\nCodec ID                         : XVID\nCodec ID/Hint                    : XviD\nDuration                         : 1h 24mn\nBit rate                         : 1 923 Kbps\nWidth                            : 656 pixels\nHeight                           : 272 pixels\nDisplay aspect ratio             : 2.40:1\nFrame rate                       : 25.000 fps\nColor space                      : YUV\nChroma subsampling               : 4:2:0\nBit depth                        : 8 bits\nScan type                        : Progressive\nCompression mode                 : Lossy\nBits/(Pixel*Frame)               : 0.431\nStream size                      : 1.13 GiB (83%)\nWriting library                  : XviD 1.2.1 (UTC 2008-12-04)\n\nAudio\nID                               : 1\nFormat                           : AC-3\nFormat/Info                      : Audio Coding 3\nMode extension                   : CM (complete main)\nCodec ID                         : 2000\nDuration                         : 1h 24mn\nBit rate mode                    : Constant\nBit rate                         : 384 Kbps\nChannel(s)                       : 6 channels\nChannel positions                : Front: L C R, Side: L R, LFE\nSampling rate                    : 48.0 KHz\nBit depth                        : 16 bits\nCompression mode                 : Lossy\nStream size                      : 232 MiB (17%)\nAlignment                        : Aligned on interleaves\nInterleave, duration             : 64 ms (1.60 video frames)\nInterleave, preload duration     : 192 ms","torrent":{"xt":"urn:btih:82ee27ec055b57ff38ec593e0cfec3a45dee8963","amp;dn":"Mars.Needs.Moms.2011.DVDRIP.XVID.AC3.B-BRG.TheO","amp;tr":["udp%3A%2F%2Ftracker.openbittorrent.com%3A80","udp%3A%2F%2Fopen.demonii.com%3A1337","udp%3A%2F%2Ftracker.coppersurfer.tk%3A6969","udp%3A%2F%2Fexodus.desync.com%3A6969"],"infoHash":"82ee27ec055b57ff38ec593e0cfec3a45dee8963","infoHashBuffer":{"type":"Buffer","data":[130,238,39,236,5,91,87,255,56,236,89,62,12,254,195,164,93,238,137,99]},"announce":[],"urlList":[]}}